<mxfile host="app.diagrams.net" modified="2023-03-30T02:23:55.795Z" agent="Mozilla/5.0 (Windows NT 10.0; Win64; x64) AppleWebKit/537.36 (KHTML, like Gecko) Chrome/111.0.0.0 Safari/537.36" etag="ulA5u1MYkIaNuYQy_J1Z" version="21.1.1" type="github">
  <diagram name="Page-1" id="phBHD3n9DO_iW6N9X3no">
    <mxGraphModel dx="5793" dy="1895" grid="0" gridSize="10" guides="1" tooltips="1" connect="1" arrows="1" fold="1" page="1" pageScale="1" pageWidth="2336" pageHeight="1654" background="#cbecdc" math="0" shadow="0">
      <root>
        <mxCell id="0" />
        <mxCell id="1" parent="0" />
        <mxCell id="Lst6nKIbEpCmuowGOIWR-2" value="" style="rounded=0;whiteSpace=wrap;html=1;" vertex="1" parent="1">
          <mxGeometry x="388" y="499" width="1244" height="567" as="geometry" />
        </mxCell>
        <mxCell id="Lst6nKIbEpCmuowGOIWR-4" value="" style="rounded=0;whiteSpace=wrap;html=1;" vertex="1" parent="1">
          <mxGeometry x="372" y="1127" width="1800" height="481" as="geometry" />
        </mxCell>
        <mxCell id="Lst6nKIbEpCmuowGOIWR-7" value="&lt;font style=&quot;font-size: 40px;&quot;&gt;FILTER&lt;/font&gt;" style="rounded=0;whiteSpace=wrap;html=1;" vertex="1" parent="1">
          <mxGeometry x="97" y="565" width="130" height="453" as="geometry" />
        </mxCell>
        <mxCell id="Lst6nKIbEpCmuowGOIWR-8" value="&lt;font style=&quot;font-size: 40px;&quot;&gt;FILTER&lt;/font&gt;" style="rounded=0;whiteSpace=wrap;html=1;" vertex="1" parent="1">
          <mxGeometry x="110" y="1161" width="116" height="413" as="geometry" />
        </mxCell>
        <mxCell id="Lst6nKIbEpCmuowGOIWR-9" value="" style="ellipse;whiteSpace=wrap;html=1;" vertex="1" parent="1">
          <mxGeometry x="1752" y="544.5" width="478" height="476" as="geometry" />
        </mxCell>
        <mxCell id="Lst6nKIbEpCmuowGOIWR-10" value="&lt;font style=&quot;font-size: 35px;&quot;&gt;NUMBER&lt;/font&gt;" style="rounded=0;whiteSpace=wrap;html=1;" vertex="1" parent="1">
          <mxGeometry x="448" y="244" width="440" height="181" as="geometry" />
        </mxCell>
        <mxCell id="Lst6nKIbEpCmuowGOIWR-13" value="&lt;font style=&quot;font-size: 35px;&quot;&gt;NUMBER&lt;/font&gt;" style="rounded=0;whiteSpace=wrap;html=1;" vertex="1" parent="1">
          <mxGeometry x="1071" y="240" width="450" height="177" as="geometry" />
        </mxCell>
        <mxCell id="Lst6nKIbEpCmuowGOIWR-14" value="&lt;font style=&quot;font-size: 35px;&quot;&gt;NUMBER&lt;/font&gt;" style="rounded=0;whiteSpace=wrap;html=1;" vertex="1" parent="1">
          <mxGeometry x="1764" y="240" width="418" height="171" as="geometry" />
        </mxCell>
        <mxCell id="Lst6nKIbEpCmuowGOIWR-15" value="&lt;font style=&quot;font-size: 40px;&quot;&gt;FILTER&lt;/font&gt;" style="rounded=0;whiteSpace=wrap;html=1;" vertex="1" parent="1">
          <mxGeometry x="95" y="217" width="126" height="223" as="geometry" />
        </mxCell>
        <mxCell id="Lst6nKIbEpCmuowGOIWR-16" value="&lt;h1&gt;&lt;font style=&quot;font-size: 36px;&quot;&gt;context&lt;/font&gt;&lt;/h1&gt;" style="text;html=1;strokeColor=#d6b656;fillColor=#fff2cc;spacing=5;spacingTop=-20;whiteSpace=wrap;overflow=hidden;rounded=0;align=center;" vertex="1" parent="1">
          <mxGeometry x="42" y="37" width="2252" height="120" as="geometry" />
        </mxCell>
        <mxCell id="Lst6nKIbEpCmuowGOIWR-17" value="Text" style="text;html=1;strokeColor=none;fillColor=none;align=center;verticalAlign=middle;whiteSpace=wrap;rounded=0;" vertex="1" parent="1">
          <mxGeometry x="1190" y="760" width="60" height="30" as="geometry" />
        </mxCell>
        <mxCell id="Lst6nKIbEpCmuowGOIWR-18" value="&lt;font style=&quot;font-size: 30px;&quot;&gt;&lt;font style=&quot;font-size: 30px;&quot;&gt;&lt;b&gt;Tong tien khach hang phai tra&lt;br&gt;&lt;/b&gt;TotalDue =&amp;nbsp;&lt;/font&gt;Computed: isnull(([SubTotal]+[TaxAmt])+[Freight],(0))&lt;/font&gt;" style="text;html=1;strokeColor=none;fillColor=none;align=center;verticalAlign=middle;whiteSpace=wrap;rounded=0;strokeWidth=28;" vertex="1" parent="1">
          <mxGeometry x="-1794" y="79" width="1264" height="112" as="geometry" />
        </mxCell>
        <mxCell id="Lst6nKIbEpCmuowGOIWR-19" value="&lt;font style=&quot;font-size: 30px;&quot;&gt;&lt;font style=&quot;font-size: 30px;&quot;&gt;&lt;b&gt;Tong tien hang ban duoc&lt;/b&gt;&lt;br&gt;&lt;table style=&quot;margin: 0px; padding: 0px; max-width: 100%; text-align: left; table-layout: auto; border-collapse: collapse; border-spacing: 0px; border: 1px solid rgb(219, 227, 243); font-size: 13px; font-family: &amp;quot;Open Sans&amp;quot;, &amp;quot;Segoe UI&amp;quot;, Arial; background-color: rgb(255, 255, 255);&quot; class=&quot;table&quot;&gt;&lt;tbody style=&quot;margin: 0px; padding: 0px; box-sizing: border-box;&quot;&gt;&lt;tr style=&quot;margin: 0px; padding: 0px; box-sizing: border-box;&quot;&gt;&lt;td style=&quot;margin: 0px; padding: 6px 20px 6px 0px; box-sizing: border-box; border-top: 1px solid rgb(219, 227, 243); border-bottom: 1px solid rgb(219, 227, 243); overflow: hidden; min-width: 20px; vertical-align: top;&quot; rel=&quot;column-full-name&quot;&gt;&lt;font style=&quot;font-size: 30px;&quot;&gt;SubTotal&lt;/font&gt;&lt;/td&gt;&lt;/tr&gt;&lt;/tbody&gt;&lt;/table&gt;&amp;nbsp;- tinh theo US Dollar (da duoc convert neu co currency khac)&lt;/font&gt;&lt;/font&gt;" style="text;html=1;strokeColor=none;fillColor=none;align=center;verticalAlign=middle;whiteSpace=wrap;rounded=0;strokeWidth=28;" vertex="1" parent="1">
          <mxGeometry x="-1810" y="240" width="1264" height="97" as="geometry" />
        </mxCell>
        <mxCell id="Lst6nKIbEpCmuowGOIWR-20" value="&lt;font style=&quot;font-size: 30px;&quot;&gt;&lt;font style=&quot;font-size: 30px;&quot;&gt;&lt;b&gt;Khu vuc dien ra giao dich&lt;br&gt;&lt;/b&gt;SalesTerritory&lt;br&gt;(Group, Name,(City, Country)&lt;br&gt;&lt;br&gt;&lt;b&gt;Doanh thu Pareto&amp;nbsp;&lt;/b&gt;&lt;br&gt;&lt;table style=&quot;margin: 0px; padding: 0px; max-width: 100%; text-align: left; table-layout: auto; border-collapse: collapse; border-spacing: 0px; border: 1px solid rgb(219, 227, 243); font-size: 13px; font-family: &amp;quot;Open Sans&amp;quot;, &amp;quot;Segoe UI&amp;quot;, Arial; background-color: rgb(255, 255, 255);&quot; class=&quot;table&quot;&gt;&lt;tbody style=&quot;margin: 0px; padding: 0px; box-sizing: border-box;&quot;&gt;&lt;tr style=&quot;margin: 0px; padding: 0px; box-sizing: border-box;&quot;&gt;&lt;td style=&quot;margin: 0px; padding: 6px 20px 6px 0px; box-sizing: border-box; border-top: 1px solid rgb(219, 227, 243); border-bottom: 1px solid rgb(219, 227, 243); overflow: hidden; min-width: 20px; vertical-align: top;&quot; rel=&quot;column-full-name&quot;&gt;&lt;br&gt;&lt;/td&gt;&lt;/tr&gt;&lt;/tbody&gt;&lt;/table&gt;&lt;/font&gt;&lt;/font&gt;" style="text;html=1;strokeColor=none;fillColor=none;align=center;verticalAlign=middle;whiteSpace=wrap;rounded=0;strokeWidth=28;" vertex="1" parent="1">
          <mxGeometry x="-1814" y="470" width="1264" height="112" as="geometry" />
        </mxCell>
        <mxCell id="Lst6nKIbEpCmuowGOIWR-21" value="&lt;font style=&quot;font-size: 30px;&quot;&gt;&lt;font style=&quot;font-size: 30px;&quot;&gt;&lt;b&gt;ShipMethod&lt;br&gt;&lt;/b&gt;Filter&lt;br&gt;&lt;table style=&quot;margin: 0px; padding: 0px; max-width: 100%; text-align: left; table-layout: auto; border-collapse: collapse; border-spacing: 0px; border: 1px solid rgb(219, 227, 243); font-size: 13px; font-family: &amp;quot;Open Sans&amp;quot;, &amp;quot;Segoe UI&amp;quot;, Arial; background-color: rgb(255, 255, 255);&quot; class=&quot;table&quot;&gt;&lt;tbody style=&quot;margin: 0px; padding: 0px; box-sizing: border-box;&quot;&gt;&lt;tr style=&quot;margin: 0px; padding: 0px; box-sizing: border-box;&quot;&gt;&lt;td style=&quot;margin: 0px; padding: 6px 20px 6px 0px; box-sizing: border-box; border-top: 1px solid rgb(219, 227, 243); border-bottom: 1px solid rgb(219, 227, 243); overflow: hidden; min-width: 20px; vertical-align: top;&quot; rel=&quot;column-full-name&quot;&gt;&lt;br&gt;&lt;/td&gt;&lt;/tr&gt;&lt;/tbody&gt;&lt;/table&gt;&lt;/font&gt;&lt;/font&gt;" style="text;html=1;strokeColor=none;fillColor=none;align=center;verticalAlign=middle;whiteSpace=wrap;rounded=0;strokeWidth=28;" vertex="1" parent="1">
          <mxGeometry x="-1817" y="768" width="1264" height="82" as="geometry" />
        </mxCell>
        <mxCell id="Lst6nKIbEpCmuowGOIWR-22" value="&lt;font style=&quot;font-size: 30px;&quot;&gt;&lt;font style=&quot;font-size: 30px;&quot;&gt;&lt;b&gt;Khoang thoi gian thuc hien 1 don hang&lt;br&gt;&lt;/b&gt;ShipDate - Order Date&lt;br&gt;&lt;table style=&quot;margin: 0px; padding: 0px; max-width: 100%; text-align: left; table-layout: auto; border-collapse: collapse; border-spacing: 0px; border: 1px solid rgb(219, 227, 243); font-size: 13px; font-family: &amp;quot;Open Sans&amp;quot;, &amp;quot;Segoe UI&amp;quot;, Arial; background-color: rgb(255, 255, 255);&quot; class=&quot;table&quot;&gt;&lt;tbody style=&quot;margin: 0px; padding: 0px; box-sizing: border-box;&quot;&gt;&lt;tr style=&quot;margin: 0px; padding: 0px; box-sizing: border-box;&quot;&gt;&lt;td style=&quot;margin: 0px; padding: 6px 20px 6px 0px; box-sizing: border-box; border-top: 1px solid rgb(219, 227, 243); border-bottom: 1px solid rgb(219, 227, 243); overflow: hidden; min-width: 20px; vertical-align: top;&quot; rel=&quot;column-full-name&quot;&gt;&lt;br&gt;&lt;/td&gt;&lt;/tr&gt;&lt;/tbody&gt;&lt;/table&gt;&lt;/font&gt;&lt;/font&gt;" style="text;html=1;strokeColor=none;fillColor=none;align=center;verticalAlign=middle;whiteSpace=wrap;rounded=0;strokeWidth=28;" vertex="1" parent="1">
          <mxGeometry x="-1842" y="968" width="1264" height="82" as="geometry" />
        </mxCell>
        <mxCell id="Lst6nKIbEpCmuowGOIWR-23" value="&lt;font style=&quot;font-size: 30px;&quot;&gt;&lt;font style=&quot;font-size: 30px;&quot;&gt;&lt;b&gt;Customer la Store hay Personal&lt;br&gt;&lt;/b&gt;Filter&lt;br&gt;OVERALL: PHAN TICH DOANH THU THEO VI TRI GIAO DICH TERRITORY TRUOC&lt;br&gt;&lt;table style=&quot;margin: 0px; padding: 0px; max-width: 100%; text-align: left; table-layout: auto; border-collapse: collapse; border-spacing: 0px; border: 1px solid rgb(219, 227, 243); font-size: 13px; font-family: &amp;quot;Open Sans&amp;quot;, &amp;quot;Segoe UI&amp;quot;, Arial; background-color: rgb(255, 255, 255);&quot; class=&quot;table&quot;&gt;&lt;tbody style=&quot;margin: 0px; padding: 0px; box-sizing: border-box;&quot;&gt;&lt;tr style=&quot;margin: 0px; padding: 0px; box-sizing: border-box;&quot;&gt;&lt;td style=&quot;margin: 0px; padding: 6px 20px 6px 0px; box-sizing: border-box; border-top: 1px solid rgb(219, 227, 243); border-bottom: 1px solid rgb(219, 227, 243); overflow: hidden; min-width: 20px; vertical-align: top;&quot; rel=&quot;column-full-name&quot;&gt;&lt;br&gt;&lt;/td&gt;&lt;/tr&gt;&lt;/tbody&gt;&lt;/table&gt;&lt;br&gt;&lt;/font&gt;&lt;/font&gt;" style="text;html=1;strokeColor=none;fillColor=none;align=center;verticalAlign=middle;whiteSpace=wrap;rounded=0;strokeWidth=28;" vertex="1" parent="1">
          <mxGeometry x="-1807" y="1151" width="1264" height="82" as="geometry" />
        </mxCell>
        <mxCell id="Lst6nKIbEpCmuowGOIWR-24" value="&lt;font style=&quot;font-size: 30px;&quot;&gt;&lt;font style=&quot;font-size: 30px;&quot;&gt;&lt;b&gt;Tong so tien giao dich ngoai hoi tren tong so tien SubTotal&lt;/b&gt;&lt;br&gt;&lt;table style=&quot;margin: 0px; padding: 0px; max-width: 100%; text-align: left; table-layout: auto; border-collapse: collapse; border-spacing: 0px; border: 1px solid rgb(219, 227, 243); font-size: 13px; font-family: &amp;quot;Open Sans&amp;quot;, &amp;quot;Segoe UI&amp;quot;, Arial; background-color: rgb(255, 255, 255);&quot; class=&quot;table&quot;&gt;&lt;tbody style=&quot;margin: 0px; padding: 0px; box-sizing: border-box;&quot;&gt;&lt;tr style=&quot;margin: 0px; padding: 0px; box-sizing: border-box;&quot;&gt;&lt;td style=&quot;margin: 0px; padding: 6px 20px 6px 0px; box-sizing: border-box; border-top: 1px solid rgb(219, 227, 243); border-bottom: 1px solid rgb(219, 227, 243); overflow: hidden; min-width: 20px; vertical-align: top;&quot; rel=&quot;column-full-name&quot;&gt;&lt;br&gt;&lt;/td&gt;&lt;/tr&gt;&lt;/tbody&gt;&lt;/table&gt;By currency key NULL VA NOT NULL&lt;br&gt;&lt;/font&gt;&lt;/font&gt;" style="text;html=1;strokeColor=none;fillColor=none;align=center;verticalAlign=middle;whiteSpace=wrap;rounded=0;strokeWidth=28;" vertex="1" parent="1">
          <mxGeometry x="-1800" y="1316" width="1264" height="82" as="geometry" />
        </mxCell>
      </root>
    </mxGraphModel>
  </diagram>
</mxfile>
